{"title":"Embrace the Darkness (1999) DVD RIP","uid":9499518,"size":845191768,"categoryP":"video","categoryS":"movies","magnet":"?xt=urn:btih:67aa514ed11556097d44f9dc26cfbd21c93321f7&amp;dn=Embrace+the+Darkness+%281999%29+DVD+RIP&amp;tr=udp%3A%2F%2Ftracker.openbittorrent.com%3A80&amp;tr=udp%3A%2F%2Fopen.demonii.com%3A1337&amp;tr=udp%3A%2F%2Ftracker.coppersurfer.tk%3A6969&amp;tr=udp%3A%2F%2Fexodus.desync.com%3A6969","seeders":1,"leechers":0,"uploader":null,"files":-1,"time":1390187020,"description":" &lt;a href=&quot;http://www.imdb.com/title/tt0162945/&quot; rel=&quot;nofollow&quot; target=&quot;_NEW&quot;&gt;http://www.imdb.com/title/tt0162945/&lt;/a&gt;\n\n\nVampires Galen [Kevin Spirtas] and Miranda [Angelina High] have just moved to Los Angeles. Galen wants to lay low and get his blood from a nearby bloodbank while Miranda likes hers fresh, young, and virile. When Galen notices dancer Jennifer [Madison Clark] masturbating on her studio floor, he falls in love and sets out to pursue her. Miranda becomes jealous and seduces Jennifer, too, while Jennifer's cop boyfriend Ryan [Brad Bartram] senses that she is becoming too friendly with Galen and Miranda. Meanwhile, Ryan and Detective Turner [Cliff Potts] have their hands full trying to figure out why bloodless bodies keep turning up with two puncture wounds on the neck. Then Jennifer is hit by a car, and Galen &quot;saves&quot; her by making her a vampire. When Ryan sees a wanted poster bearing a drawing of Galen, he grabs a stake and rushes over to Galen's apartment, only to find Jennifer squating in a corner and crying. Does Ryan use that stake on Jennifer? You'll have to wait for Embrace the Darkness 2 to find out. \n\n\nFormat                                   : MPEG-4\nFormat profile                           : Base Media / Version 2\nCodec ID                                 : mp42\nFile size                                : 806 MiB\nDuration                                 : 1h 44mn\nOverall bit rate mode                    : Variable\nOverall bit rate                         : 1 077 Kbps\nEncoded date                             : UTC 2013-11-12 07:59:58\nTagged date                              : UTC 2013-11-12 09:03:22\nWriting application                      : HandBrake 0.9.9 2013052900\n\nVideo\nID                                       : 1\nFormat                                   : AVC\nFormat/Info                              : Advanced Video Codec\nFormat profile                           : &lt;a class=&quot;__cf_email__&quot; href=&quot;/cdn-cgi/l/email-protection&quot; data-cfemail=&quot;e4ac8d838ca4a8d1cad6&quot;&gt;[email&amp;#160;protected]&lt;/a&gt;&lt;script cf-hash='f9e31' type=&quot;text/javascript&quot;&gt;\n/* &lt;![CDATA[ */!function(){try{var t=&quot;currentScript&quot;in document?document.currentScript:function(){for(var t=document.getElementsByTagName(&quot;script&quot;),e=t.length;e--;)if(t[e].getAttribute(&quot;cf-hash&quot;))return t[e]}();if(t&amp;&amp;t.previousSibling){var e,r,n,i,c=t.previousSibling,a=c.getAttribute(&quot;data-cfemail&quot;);if(a){for(e=&quot;&quot;,r=parseInt(a.substr(0,2),16),n=2;a.length-n;n+=2)i=parseInt(a.substr(n,2),16)^r,e+=String.fromCharCode(i);e=document.createTextNode(e),c.parentNode.replaceChild(e,c)}}}catch(u){}}();/* ]]&gt; */&lt;/script&gt;\nFormat settings, CABAC                   : Yes\nFormat settings, ReFrames                : 4 frames\nCodec ID                                 : avc1\nCodec ID/Info                            : Advanced Video Coding\nDuration                                 : 1h 44mn\nBit rate                                 : 911 Kbps\nWidth                                    : 720 pixels\nHeight                                   : 480 pixels\nDisplay aspect ratio                     : 4:3\nOriginal display aspect ratio            : 4:3\nFrame rate mode                          : Variable\nFrame rate                               : 24.320 fps\nMinimum frame rate                       : 9.990 fps\nMaximum frame rate                       : 29.970 fps\nStandard                                 : NTSC\nColor space                              : YUV\nChroma subsampling                       : 4:2:0\nBit depth                                : 8 bits\nScan type                                : Progressive\nBits/(Pixel*Frame)                       : 0.108\nStream size                              : 682 MiB (85%)\nWriting library                          : x264 core 130 r2273 b3065e6\n\nEncoded date                             : UTC 2013-11-12 07:59:58\nTagged date                              : UTC 2013-11-12 09:03:22\nColor primaries                          : BT.601 NTSC\nTransfer characteristics                 : BT.709\nMatrix coefficients                      : BT.601\n\nAudio\nID                                       : 2\nFormat                                   : AAC\nFormat/Info                              : Advanced Audio Codec\nFormat profile                           : LC\nCodec ID                                 : 40\nDuration                                 : 1h 44mn\nBit rate mode                            : Variable\nBit rate                                 : 160 Kbps\nMaximum bit rate                         : 194 Kbps\nChannel(s)                               : 2 channels\nChannel positions                        : Front: L R\nSampling rate                            : 48.0 KHz\nCompression mode                         : Lossy\nStream size                              : 120 MiB (15%)\nLanguage                                 : English\nEncoded date                             : UTC 2013-11-12 07:59:58\nTagged date                              : UTC 2013-11-12 09:03:22","torrent":{"xt":"urn:btih:67aa514ed11556097d44f9dc26cfbd21c93321f7","amp;dn":"Embrace+the+Darkness+%281999%29+DVD+RIP","amp;tr":["udp%3A%2F%2Ftracker.openbittorrent.com%3A80","udp%3A%2F%2Fopen.demonii.com%3A1337","udp%3A%2F%2Ftracker.coppersurfer.tk%3A6969","udp%3A%2F%2Fexodus.desync.com%3A6969"],"infoHash":"67aa514ed11556097d44f9dc26cfbd21c93321f7","infoHashBuffer":{"type":"Buffer","data":[103,170,81,78,209,21,86,9,125,68,249,220,38,207,189,33,201,51,33,247]},"announce":[],"urlList":[]}}